<svg fill="none" height="14" viewBox="0 0 15 14" width="15" xmlns="http://www.w3.org/2000/svg"><path d="m7.80234 12.9998c3.83646 0 5.99456-2.158 5.99456-5.99452 0-3.8365-2.1581-5.99454-5.99456-5.99454-3.8365 0-5.99454 2.15804-5.99454 5.99454 0 3.83652 2.15804 5.99452 5.99454 5.99452z" fill="#fff"/><g stroke="#4147d5" stroke-linecap="round" stroke-linejoin="round" stroke-width="1.5"><path d="m13.7969 7.00528c0 3.83652-2.1581 5.99452-5.99456 5.99452-3.83651 0-5.99454-2.158-5.99454-5.99452 0-3.8365 2.15803-5.99454 5.99454-5.99454"/><path d="m6.84322 3.98792c-1.39179.31586-2.15804 1.36841-2.15804 3.01692 0 1.99499 1.12218 3.11716 3.11716 3.11716 1.72945 0 2.80296-.84333 3.05806-2.36753"/><path d="m7.80234 7.00485 2.07749-2.07748"/><path d="m9.87896 4.92911-.12445-.40356c-.21845-.70834-.0272-1.47941.49699-2.00358l1.5216-1.52173.4796 1.55506 1.555.47956-1.5216 1.5217c-.5242.52418-1.2953.71544-2.0036.49699z" fill="#d7e0ff"/></g></svg>